<mxfile host="app.diagrams.net" modified="2023-11-24T05:26:52.551Z" agent="Mozilla/5.0 (X11; Ubuntu; Linux x86_64; rv:109.0) Gecko/20100101 Firefox/118.0" version="22.1.3" etag="_oQFd3cJZtK94rErUqAv" type="github">
  <diagram name="Страница — 1" id="rhOm-ob-f_nLylCikuXA">
    <mxGraphModel>
      <root>
        <mxCell id="0" />
        <mxCell id="1" parent="0" />
      </root>
    </mxGraphModel>
  </diagram>
</mxfile>
